HIERARCHY
ROOT root
{
	OFFSET 0.000000 0.000000 0.000000
	CHANNELS 6 Xposition Yposition Zposition Zrotation Yrotation Xrotation
	JOINT lhip
	{
		OFFSET 0.058581 -0.082280 -0.017664
		CHANNELS 3 Zrotation Yrotation Xrotation
		JOINT lknee
		{
			OFFSET 0.043451 -0.386469 0.008037
			CHANNELS 3 Zrotation Yrotation Xrotation
			JOINT lankle
			{
				OFFSET -0.014790 -0.426874 -0.037428
				CHANNELS 3 Zrotation Yrotation Xrotation
				JOINT ltoe
				{
					OFFSET 0.041054 -0.060286 0.122042
					CHANNELS 3 Zrotation Yrotation Xrotation
					End Site
					{
						OFFSET 0.000000 0.000000 0.000000
					}
				}
			}
		}
	}
	JOINT rhip
	{
		OFFSET -0.060310 -0.090513 -0.013543
		CHANNELS 3 Zrotation Yrotation Xrotation
		JOINT rknee
		{
			OFFSET -0.043257 -0.383688 -0.004843
			CHANNELS 3 Zrotation Yrotation Xrotation
			JOINT rankle
			{
				OFFSET 0.019056 -0.420046 -0.034562
				CHANNELS 3 Zrotation Yrotation Xrotation
				JOINT rtoe
				{
					OFFSET -0.034840 -0.062106 0.130323
					CHANNELS 3 Zrotation Yrotation Xrotation
					End Site
					{
						OFFSET 0.000000 0.000000 0.000000
					}
				}
			}
		}
	}
	JOINT lowerback
	{
		OFFSET 0.004439 0.124404 -0.038385
		CHANNELS 3 Zrotation Yrotation Xrotation
		JOINT upperback
		{
			OFFSET 0.004488 0.137956 0.026820
			CHANNELS 3 Zrotation Yrotation Xrotation
			JOINT chest
			{
				OFFSET -0.002265 0.056032 0.002855
				CHANNELS 3 Zrotation Yrotation Xrotation
				JOINT lowerneck
				{
					OFFSET -0.013390 0.211636 -0.033468
					CHANNELS 3 Zrotation Yrotation Xrotation
					JOINT upperneck
					{
						OFFSET 0.010113 0.088937 0.050410
						CHANNELS 3 Zrotation Yrotation Xrotation
						End Site
						{
							OFFSET 0.000000 0.000000 0.000000
						}
					}
				}
				JOINT lclavicle
				{
					OFFSET 0.071702 0.114000 -0.018898
					CHANNELS 3 Zrotation Yrotation Xrotation
					JOINT lshoulder
					{
						OFFSET 0.122921 0.045205 -0.019046
						CHANNELS 3 Zrotation Yrotation Xrotation
						JOINT lelbow
						{
							OFFSET 0.255332 -0.015649 -0.022946
							CHANNELS 3 Zrotation Yrotation Xrotation
							JOINT lwrist
							{
								OFFSET 0.265709 0.012698 -0.007375
								CHANNELS 3 Zrotation Yrotation Xrotation
								End Site
								{
									OFFSET 0.000000 0.000000 0.000000
								}
							}
						}
					}
				}
				JOINT rclavicle
				{
					OFFSET -0.082954 0.112472 -0.023707
					CHANNELS 3 Zrotation Yrotation Xrotation
					JOINT rshoulder
					{
						OFFSET -0.113228 0.046853 -0.008472
						CHANNELS 3 Zrotation Yrotation Xrotation
						JOINT relbow
						{
							OFFSET -0.260127 -0.014369 -0.031269
							CHANNELS 3 Zrotation Yrotation Xrotation
							JOINT rwrist
							{
								OFFSET -0.269108 0.006794 -0.006027
								CHANNELS 3 Zrotation Yrotation Xrotation
								End Site
								{
									OFFSET 0.000000 0.000000 0.000000
								}
							}
						}
					}
				}
			}
		}
	}
}
MOTION
Frames: 11
Frame Time: 0.033333
-0.282568 0.268769 0.997207 91.725681 -1.321436 86.057511 -1.752614 -1.119759 0.211285 -4.095224 -12.308773 9.105603 3.730834 5.317394 -10.143125 0.000000 -0.000000 0.000000 -0.713271 0.605607 -5.909383 -0.115530 0.013813 20.074268 2.832862 -8.455288 -11.763378 0.000000 -0.000000 0.000000 0.447005 -0.809221 13.290439 2.644855 -0.599985 -5.358273 1.158256 -2.833071 0.646575 2.404857 3.522261 -12.899550 -4.585688 -4.216768 11.141343 -28.143126 8.605311 -0.734829 -57.287404 -4.959567 11.419955 4.857159 -26.433674 13.691020 -5.782259 -4.539297 -3.868639 31.454252 -2.720325 -3.371085 51.289063 4.859746 13.658700 -12.206903 16.332831 -10.067734 6.895772 3.960983 -7.153578 
-0.281977 0.271740 0.997440 91.431859 -1.066700 85.924178 -1.575421 -1.043074 0.566775 -4.172019 -12.197805 8.848012 3.587776 5.379548 -10.178655 0.000000 -0.000000 0.000000 -0.617601 0.384162 -5.483667 -0.136965 0.235782 19.486465 2.885941 -8.227200 -11.493861 0.000000 -0.000000 0.000000 0.431514 -0.861979 13.276975 2.703492 -0.744788 -5.188973 1.321807 -2.663272 0.779331 2.406431 3.453705 -12.822213 -4.390675 -4.190736 10.882364 -27.995264 8.710470 -0.711876 -57.280020 -5.142633 11.043719 5.218497 -26.253548 12.841414 -5.733681 -4.489652 -4.503783 31.419843 -2.640554 -3.235381 51.422665 4.846042 13.542026 -12.160940 15.489933 -10.021119 6.838720 3.689206 -7.146278 
-0.282878 0.274668 0.997532 90.985359 -0.824434 85.887614 -1.439926 -1.011932 0.637553 -4.226678 -11.982207 8.826539 3.550590 5.584925 -10.191667 0.000000 -0.000000 0.000000 -0.614489 0.596360 -5.397975 -0.122539 0.016426 19.198094 3.277282 -8.280569 -11.254783 0.000000 -0.000000 0.000000 0.438452 -0.813753 13.450755 2.721751 -0.610028 -5.052876 1.425172 -2.729345 0.784154 2.545299 3.208764 -12.949999 -4.333343 -4.443001 10.717823 -27.924293 8.648661 -0.608406 -57.051731 -5.333985 10.787796 5.533777 -26.263084 12.145801 -5.852173 -4.556308 -4.777256 31.500016 -2.567466 -3.430468 51.457247 4.547878 13.576371 -12.162733 15.490027 -10.179721 7.127139 3.876131 -7.015861 
-0.283010 0.278088 0.997638 90.690171 -0.544875 86.137173 -1.315467 -0.775694 0.464565 -4.235492 -12.087683 8.667944 3.626769 5.626964 -10.225626 0.000000 -0.000000 0.000000 -0.556823 0.197921 -5.792095 -0.086276 0.116697 19.100683 3.022383 -8.168012 -11.217425 0.000000 -0.000000 0.000000 0.493530 -0.904016 13.150117 2.808702 -0.698532 -5.022392 1.427399 -2.778409 0.920058 2.513889 3.035383 -12.727781 -4.250835 -4.650558 10.638088 -27.995879 8.876412 -0.594422 -56.523209 -5.374725 10.509614 5.741219 -26.649578 11.670942 -5.616919 -4.663596 -4.944861 31.591840 -2.899469 -3.402570 51.350911 4.405599 13.565091 -11.951887 16.160433 -9.880524 7.122187 3.786004 -6.861032 
-0.283591 0.279776 0.997768 90.426477 -0.335765 86.171531 -1.217218 -0.853176 0.374455 -4.224698 -11.978297 8.721143 3.617124 5.769919 -10.238916 0.000000 -0.000000 0.000000 -0.419298 0.427452 -5.885798 -0.087198 0.033826 19.055740 3.230964 -8.092831 -11.383641 0.000000 -0.000000 0.000000 0.519381 -0.923835 13.266346 2.845937 -0.666805 -4.920127 1.456957 -2.808130 0.886161 2.483416 3.124994 -12.799582 -4.163294 -4.666043 10.684695 -27.825541 8.811290 -0.656397 -56.505245 -5.513028 10.424374 5.937138 -26.654794 11.038632 -5.447780 -4.514142 -5.095406 31.578656 -2.931975 -3.477917 51.475027 4.344468 13.610147 -12.032530 16.279552 -10.007648 7.179890 3.828003 -7.101386 
-0.283824 0.281375 0.998194 89.709758 -0.139613 86.284545 -1.121077 -0.791441 0.418876 -4.170750 -11.797859 8.510492 3.684795 6.107390 -10.248093 0.000000 -0.000000 0.000000 -0.286566 0.489569 -6.140767 -0.071802 0.215367 19.200331 3.881689 -7.885875 -11.309879 0.000000 -0.000000 0.000000 0.408611 -0.909602 13.290816 2.858504 -0.525407 -4.966483 1.505941 -2.655862 0.912943 2.600590 3.279535 -12.798035 -4.162049 -4.730390 10.844951 -27.881236 8.795838 -0.774682 -56.061789 -5.531963 10.391331 6.135288 -26.608922 10.788075 -5.194457 -4.717491 -4.993384 31.656613 -2.920246 -3.296762 51.581637 4.325417 13.637089 -12.189991 16.387188 -10.341872 6.214609 3.238955 -7.483527 
-0.284818 0.282802 0.998767 89.093708 0.089230 86.385954 -0.974978 -0.786498 0.216553 -4.171602 -11.637591 8.677635 3.682533 6.375874 -10.358339 0.000000 -0.000000 0.000000 -0.048950 0.791988 -6.571753 -0.070391 0.151810 19.277715 3.855055 -7.550692 -11.525109 0.000000 -0.000000 0.000000 0.456564 -1.031982 13.473665 2.812019 -0.450383 -5.045543 1.483296 -2.694156 0.983629 2.602461 3.476348 -12.894999 -4.050081 -4.678986 10.988094 -27.805334 8.815609 -0.966108 -56.038974 -5.722255 10.140298 6.573404 -26.358473 9.787732 -5.082135 -4.525859 -5.182378 31.773397 -3.080034 -3.640840 51.557430 4.507090 13.856013 -12.077794 17.015868 -9.957936 6.809504 3.669799 -7.232856 
-0.284933 0.283748 0.998971 88.172372 0.212678 86.238698 -0.917403 -0.684779 0.379089 -4.175550 -11.583748 8.807195 3.873784 6.866492 -10.513502 0.000000 -0.000000 0.000000 0.147037 1.359333 -6.956868 -0.165782 0.052369 19.907384 4.162974 -7.723057 -11.775333 0.000000 -0.000000 0.000000 0.248502 -1.141752 13.697969 2.822130 -0.313052 -4.916397 1.534093 -2.548190 0.936093 2.756763 3.521569 -12.490610 -4.119259 -4.669966 10.969770 -27.852191 8.656485 -0.822712 -55.801117 -5.952127 9.923274 6.854129 -26.194660 9.102406 -5.038543 -4.432422 -5.087355 31.552321 -2.705045 -3.285528 51.916538 4.410486 14.059613 -12.580483 17.722824 -10.122207 6.527956 3.264482 -7.372467 
-0.285260 0.284459 0.998966 87.334260 0.264516 86.151351 -0.925449 -0.781365 0.418827 -4.184284 -11.102094 9.034094 4.027202 7.229377 -10.734402 0.000000 -0.000000 0.000000 0.190370 1.842729 -7.848083 -0.089672 0.198293 20.830079 3.814775 -7.463581 -12.224823 0.000000 -0.000000 0.000000 0.137138 -1.264894 14.026941 2.760932 -0.271328 -5.012729 1.434967 -2.583560 0.974803 2.756997 3.919375 -12.194106 -3.955955 -4.352087 10.761534 -27.763182 8.495346 -0.745829 -55.650764 -5.954364 9.749235 7.164012 -25.995099 8.343111 -5.117780 -4.167046 -5.473805 31.631946 -2.602055 -3.279300 51.977687 4.773339 14.141804 -12.741524 18.354821 -10.303746 7.063688 3.250444 -7.633546 
-0.285963 0.284525 0.998131 86.420204 0.324641 85.986762 -0.874205 -0.597720 0.389105 -4.234657 -10.782634 9.440245 4.053481 7.617534 -10.996436 0.000000 -0.000000 0.000000 0.297854 2.227825 -9.131020 -0.091260 0.684080 22.066331 4.001771 -7.796231 -12.772297 0.000000 -0.000000 0.000000 0.019526 -1.518838 14.420623 2.724534 -0.255083 -4.981607 1.223682 -2.679951 1.253447 2.835757 4.318978 -12.666526 -4.028248 -4.181692 11.041027 -27.820202 8.425357 -1.110859 -55.260635 -6.223641 9.677235 7.188070 -25.897622 7.859755 -4.854972 -4.003705 -5.391287 31.817524 -2.613840 -3.848869 51.945343 5.267251 14.622180 -12.291403 19.386836 -9.981452 7.139382 3.792545 -7.420407 
-0.285750 0.283925 0.997687 86.239957 0.298040 85.958796 -0.876897 -0.728854 0.439830 -4.296469 -10.757918 9.422736 4.285150 7.758876 -10.889673 0.000000 -0.000000 0.000000 0.209725 2.418437 -9.462825 0.021603 0.925332 22.439275 3.903588 -7.717983 -12.882881 0.000000 -0.000000 0.000000 -0.106903 -1.624755 14.361666 2.738089 -0.596041 -4.961732 1.155261 -2.957340 1.221704 2.738275 4.567313 -12.190852 -3.990832 -3.920728 11.124357 -27.702669 7.935309 -0.770668 -55.175897 -6.347138 9.646135 7.314160 -25.618904 7.509400 -4.718025 -3.942745 -5.488398 31.639230 -2.390804 -3.611225 52.242235 5.431969 14.755889 -12.287838 20.450871 -10.210943 7.295496 3.592526 -8.168120 
